# This file uses centimeters as units for non-parametric coordinates.

g default
v -1.563511 0.000001 19.008033
v 1.563511 0.000001 19.008033
v -1.563511 0.000001 -8.210584
v 1.563511 0.000001 -8.210584
v -1.563511 0.000001 -5.066181
v 1.563511 0.000001 -5.066181
v 8.667457 0.000001 -5.066181
v 8.667457 0.000001 -8.210584
v -1.563511 7.913886 19.008033
v -1.563511 7.913886 -5.066181
v -1.563511 7.913886 -8.210584
v 1.563511 7.913886 -8.210584
v 8.667457 7.913886 -8.210584
v 8.667457 7.913886 -5.066181
v 1.563511 7.913886 -5.066181
v 1.563511 7.913886 19.008033
vt 0.000000 0.000000
vt 1.000000 0.000000
vt 1.000000 1.000000
vt 0.000000 1.000000
vt 0.000000 0.000000
vt 1.000000 0.000000
vt 1.000000 1.000000
vt 0.000000 1.000000
vt 0.000000 1.000000
vt 0.000000 0.000000
vt 1.000000 1.000000
vt 0.000000 1.000000
vt 0.000000 0.000000
vt 1.000000 0.000000
vt 1.000000 1.000000
vt 0.000000 1.000000
vt 0.000000 0.000000
vt 1.000000 0.000000
vt 1.000000 1.000000
vt 0.000000 1.000000
vt 0.000000 0.000000
vt 1.000000 0.000000
vt 1.000000 1.000000
vt 0.000000 1.000000
vt 0.000000 0.000000
vt 1.000000 0.000000
vt 1.000000 0.000000
vt 1.000000 1.000000
vt -0.335722 0.000000
vt 2.461870 0.000000
vt 2.461870 1.000000
vt -0.335722 1.000000
vt -0.700144 0.000000
vt -0.700144 1.000000
vt -1.065185 0.999381
vt -1.065187 -0.000619
vt -1.954758 0.999382
vt -1.954759 -0.000618
vn 0.000000 0.000000 1.000000
vn 0.000000 0.000000 1.000000
vn 0.000000 0.000000 1.000000
vn 0.000000 0.000000 1.000000
vn 0.000000 0.000000 -1.000000
vn 0.000000 0.000000 -1.000000
vn 0.000000 0.000000 -1.000000
vn 0.000000 0.000000 -1.000000
vn 0.000000 -1.000000 0.000000
vn 0.000000 -1.000000 0.000000
vn 0.000000 -1.000000 0.000000
vn 0.000000 -1.000000 0.000000
vn 1.000000 0.000000 0.000000
vn 1.000000 0.000000 0.000000
vn 1.000000 0.000000 0.000000
vn 1.000000 0.000000 0.000000
vn -1.000000 0.000000 0.000000
vn -1.000000 0.000000 0.000000
vn -1.000000 0.000000 0.000000
vn -1.000000 0.000000 0.000000
vn -1.000000 0.000000 0.000000
vn -1.000000 0.000000 0.000000
vn 0.000000 -1.000000 0.000000
vn 0.000000 -1.000000 0.000000
vn 1.000000 0.000000 0.000000
vn 1.000000 0.000000 0.000000
vn 1.000000 0.000000 0.000000
vn 1.000000 0.000000 0.000000
vn 0.000000 0.000000 1.000000
vn 0.000000 0.000000 1.000000
vn 0.000000 0.000000 1.000000
vn 0.000000 0.000000 1.000000
vn 0.000000 -1.000000 0.000000
vn 0.000000 -1.000000 0.000000
vn 0.000000 -1.000000 0.000000
vn 0.000000 -1.000000 0.000000
vn 0.000000 0.000000 -1.000000
vn 0.000000 0.000000 -1.000000
vn 0.000000 0.000000 -1.000000
vn 0.000000 0.000000 -1.000000
s off
g pCube1
f 1/17/1 2/18/2 16/19/3 9/20/4
f 11/34/5 12/35/6 4/36/7 3/33/8
s 1
f 5/25/9 6/26/10 2/11/11 1/12/12
s off
f 2/1/13 6/2/14 15/3/15 16/4/16
s 2
f 5/29/17 1/30/18 9/31/19 10/32/20
f 3/33/21 5/29/17 10/32/20 11/34/22
s 1
f 3/13/23 4/27/24 6/28/10 5/9/9
s off
f 14/5/25 7/6/26 8/7/27 13/8/28
f 15/21/29 6/22/30 7/23/31 14/24/32
f 6/10/33 4/14/34 8/15/35 7/16/36
f 4/36/37 12/35/38 13/37/39 8/38/40
