# This file uses centimeters as units for non-parametric coordinates.

g default
v -11.514424 3.803308 -0.413158
v -11.865878 3.803308 -0.668504
v -12.300298 3.803308 -0.668504
v -12.651752 3.803308 -0.413158
v -12.785995 3.803308 0.000000
v -12.651752 3.803308 0.413158
v -12.300298 3.803308 0.668504
v -11.865878 3.803308 0.668504
v -11.514424 3.803308 0.413158
v -11.380181 3.803308 -0.000000
v -11.274071 7.511526 -0.587785
v -11.774071 7.511526 -0.951057
v -12.392105 7.511526 -0.951057
v -12.892105 7.511526 -0.587785
v -13.083088 7.511526 0.000000
v -12.892105 7.511526 0.587785
v -12.392105 7.511526 0.951057
v -11.774071 7.511526 0.951057
v -11.274071 7.511526 0.587785
v -11.083088 7.511526 0.000000
v -12.083088 3.803308 -0.000000
v -11.396029 7.511526 -0.499177
v -11.820655 7.511526 -0.807686
v -12.345521 7.511526 -0.807685
v -12.770146 7.511526 -0.499177
v -12.932339 7.511526 0.000000
v -12.770146 7.511526 0.499177
v -12.345521 7.511526 0.807685
v -11.820655 7.511526 0.807685
v -11.396029 7.511526 0.499177
v -11.233837 7.511526 -0.000000
v -11.396029 7.459535 -0.499177
v -11.820655 7.459535 -0.807686
v -12.345521 7.459535 -0.807686
v -12.770146 7.459535 -0.499177
v -12.932339 7.459535 0.000000
v -12.770146 7.459535 0.499177
v -12.345521 7.459535 0.807685
v -11.820655 7.459535 0.807685
v -11.396029 7.459535 0.499177
v -11.233837 7.459535 -0.000000
v -12.164185 7.459535 0.249589
v -12.001991 7.459535 -0.249589
v -11.353208 6.290591 -0.530289
v -11.804298 6.290591 -0.858026
v -12.361877 6.290591 -0.858026
v -12.812968 6.290591 -0.530289
v -12.985270 6.290591 0.000000
v -12.812968 6.290591 0.530289
v -12.361877 6.290591 0.858026
v -11.804298 6.290591 0.858026
v -11.353208 6.290591 0.530289
v -11.180906 6.290591 -0.000000
v -11.441270 4.931943 -0.466308
v -11.837935 4.931943 -0.754502
v -12.328240 4.931943 -0.754502
v -12.724906 4.931943 -0.466308
v -12.876418 4.931943 0.000000
v -12.724906 4.931943 0.466308
v -12.328240 4.931943 0.754502
v -11.837935 4.931943 0.754502
v -11.441270 4.931943 0.466308
v -11.289758 4.931943 -0.000000
v -11.415348 4.931943 -0.485141
v -11.828034 4.931943 -0.784975
v -11.793038 6.290591 -0.892679
v -11.323729 6.290591 -0.551706
v -12.338141 4.931943 -0.784975
v -12.373137 6.290591 -0.892679
v -12.750828 4.931943 -0.485141
v -12.842447 6.290591 -0.551706
v -12.908459 4.931943 0.000000
v -13.021707 6.290591 0.000000
v -12.750828 4.931943 0.485141
v -12.842447 6.290591 0.551706
v -12.338141 4.931943 0.784975
v -12.373137 6.290591 0.892679
v -11.828034 4.931943 0.784975
v -11.793038 6.290591 0.892679
v -11.415348 4.931943 0.485141
v -11.323729 6.290591 0.551706
v -11.257717 4.931943 -0.000000
v -11.144469 6.290591 -0.000000
vt 0.876428 0.808504
vt 0.967482 0.808504
vt 0.967482 0.808504
vt 0.967482 0.808504
vt 0.967482 0.808504
vt 0.967482 0.808504
vt 0.967482 0.808504
vt 0.967482 0.808504
vt 0.967482 0.808504
vt 0.967482 0.808504
vt 0.694283 0.205308
vt 0.618932 0.205309
vt 0.543580 0.205309
vt 0.468229 0.205309
vt 0.392877 0.205309
vt 0.317526 0.205310
vt 0.242174 0.205310
vt 0.166823 0.205310
vt 0.091471 0.205310
vt 0.769634 0.205308
vt 0.104487 0.736549
vt 0.192853 0.736549
vt 0.281219 0.736550
vt 0.369586 0.736550
vt 0.457953 0.736550
vt 0.546319 0.736549
vt 0.634685 0.736549
vt 0.723052 0.736549
vt 0.811419 0.736549
vt 0.016120 0.736549
vt 0.967482 0.899557
vt 0.058422 0.864981
vt 0.040006 0.864981
vt 0.040006 0.846564
vt 0.021590 0.864979
vt 0.021590 0.846563
vt 0.205755 0.864980
vt 0.187338 0.864980
vt 0.187338 0.846563
vt 0.168922 0.864980
vt 0.168922 0.846563
vt 0.150505 0.864980
vt 0.150505 0.846563
vt 0.132089 0.864980
vt 0.132089 0.846563
vt 0.113672 0.864980
vt 0.113672 0.846563
vt 0.095256 0.864980
vt 0.095256 0.846564
vt 0.076839 0.864980
vt 0.076839 0.846564
vt 0.058422 0.846564
vt 0.035680 0.891032
vt 0.051333 0.891032
vt 0.066986 0.891033
vt 0.082639 0.891033
vt 0.098291 0.891034
vt 0.113944 0.891034
vt 0.129597 0.891035
vt 0.145249 0.891035
vt 0.160902 0.891036
vt 0.020028 0.891031
vt 0.145101 0.833846
vt 0.131337 0.833846
vt 0.117573 0.833846
vt 0.103809 0.833846
vt 0.090044 0.833846
vt 0.076279 0.833847
vt 0.062515 0.833847
vt 0.048751 0.833847
vt 0.034987 0.833847
vt 0.158866 0.833846
vt 0.145101 0.820082
vt 0.131337 0.820083
vt 0.051334 0.875380
vt 0.035681 0.875380
vt 0.117573 0.820082
vt 0.066986 0.875380
vt 0.103808 0.820083
vt 0.082639 0.875381
vt 0.090044 0.820083
vt 0.098292 0.875382
vt 0.076279 0.820083
vt 0.113945 0.875382
vt 0.062515 0.820083
vt 0.129597 0.875383
vt 0.048751 0.820084
vt 0.145250 0.875383
vt 0.034987 0.820084
vt 0.160903 0.875384
vt 0.158866 0.820082
vt 0.020028 0.875379
vt 0.104486 0.506626
vt 0.192853 0.506626
vt 0.281219 0.506626
vt 0.369586 0.506626
vt 0.457953 0.506626
vt 0.546319 0.506626
vt 0.634685 0.506626
vt 0.723052 0.506626
vt 0.811419 0.506626
vt 0.899785 0.506626
vt 0.899785 0.736550
vt 0.016120 0.506626
vt 0.876428 0.808504
vt 0.967482 0.808504
vt 0.967482 0.899557
vt 0.876428 0.808504
vt 0.967482 0.899557
vt 0.876428 0.808504
vt 0.967482 0.899557
vt 0.876428 0.808504
vt 0.967482 0.899557
vt 0.876428 0.808504
vt 0.967482 0.899557
vt 0.876428 0.808504
vt 0.967482 0.899557
vt 0.876428 0.808504
vt 0.967482 0.899557
vt 0.876428 0.808504
vt 0.967482 0.899557
vt 0.876428 0.808504
vt 0.967482 0.899557
vt 0.205755 0.846563
vt 0.105898 0.239170
vt 0.195675 0.239170
vt 0.195675 0.472765
vt 0.105898 0.472766
vt 0.285453 0.239170
vt 0.285453 0.472765
vt 0.375231 0.239171
vt 0.375231 0.472765
vt 0.465009 0.239170
vt 0.465008 0.472765
vt 0.554786 0.239170
vt 0.554786 0.472765
vt 0.644564 0.239170
vt 0.644564 0.472766
vt 0.734342 0.239170
vt 0.734341 0.472766
vt 0.824120 0.239170
vt 0.824119 0.472766
vt 0.913897 0.239170
vt 0.913897 0.472765
vt 0.016120 0.239170
vt 0.016120 0.472765
vt 0.618932 0.009249
vt 0.694283 0.009249
vt 0.543580 0.009248
vt 0.468229 0.009249
vt 0.392878 0.009249
vt 0.317526 0.009249
vt 0.242174 0.009249
vt 0.166823 0.009249
vt 0.091472 0.009249
vt 0.016120 0.205306
vt 0.016120 0.009248
vt 0.769634 0.009249
vt 0.021222 0.833846
vt 0.021222 0.820082
vt 0.176555 0.891036
vt 0.176556 0.875384
vt 0.735730 0.838743
vt 0.735730 0.905594
vt 0.696436 0.959678
vt 0.664646 0.861840
vt 0.632857 0.980336
vt 0.601068 0.882498
vt 0.632857 0.764002
vt 0.696436 0.784660
vt 0.529984 0.905594
vt 0.569278 0.959678
vt 0.569278 0.784660
vt 0.529984 0.838743
vt 0.405758 0.783383
vt 0.446723 0.839766
vt 0.430555 0.845020
vt 0.395765 0.797136
vt 0.446723 0.909461
vt 0.430555 0.904208
vt 0.339474 0.761846
vt 0.339474 0.778846
vt 0.405757 0.965845
vt 0.395765 0.952092
vt 0.273191 0.783383
vt 0.283183 0.797136
vt 0.339474 0.987381
vt 0.339474 0.970382
vt 0.232226 0.839766
vt 0.248394 0.845020
vt 0.273191 0.965845
vt 0.283183 0.952092
vt 0.232226 0.909461
vt 0.248394 0.904208
vn 0.806433 -0.079862 -0.585908
vn 0.308030 -0.079862 -0.948019
vn 0.308030 -0.079862 -0.948019
vn 0.806433 -0.079862 -0.585908
vn -0.308030 -0.079862 -0.948019
vn -0.308030 -0.079862 -0.948019
vn -0.806433 -0.079862 -0.585908
vn -0.806433 -0.079862 -0.585908
vn -0.996806 -0.079862 0.000000
vn -0.996806 -0.079862 0.000000
vn -0.806433 -0.079862 0.585908
vn -0.806433 -0.079862 0.585908
vn -0.308030 -0.079862 0.948019
vn -0.308030 -0.079862 0.948019
vn 0.308030 -0.079862 0.948019
vn 0.308030 -0.079862 0.948019
vn 0.806433 -0.079862 0.585908
vn 0.806433 -0.079862 0.585908
vn 0.996806 -0.079862 -0.000000
vn 0.996806 -0.079862 -0.000000
vn 0.000000 -1.000000 -0.000000
vn 0.000000 -1.000000 -0.000000
vn 0.000000 -1.000000 0.000000
vn 0.000000 -1.000000 0.000000
vn 0.000000 -1.000000 0.000000
vn 0.000000 -1.000000 0.000000
vn 0.000000 -1.000000 0.000000
vn 0.000000 -1.000000 0.000000
vn 0.000000 -1.000000 0.000000
vn 0.000000 -1.000000 0.000000
vn 0.000000 -1.000000 0.000000
vn 0.000000 1.000000 -0.000002
vn 0.000000 1.000000 -0.000002
vn 0.000000 1.000000 -0.000002
vn 0.000000 1.000000 -0.000002
vn 0.000000 1.000000 0.000003
vn 0.000000 1.000000 0.000003
vn 0.000000 1.000000 0.000003
vn 0.000000 1.000000 0.000003
vn 0.000000 1.000000 0.000000
vn 0.000000 1.000000 0.000000
vn 0.000000 1.000000 0.000000
vn 0.000000 1.000000 0.000000
vn 0.000000 1.000000 0.000001
vn 0.000000 1.000000 0.000001
vn 0.000000 1.000000 0.000001
vn 0.000000 1.000000 0.000001
vn 0.000000 1.000000 0.000000
vn 0.000000 1.000000 0.000000
vn 0.000000 1.000000 0.000000
vn 0.000000 1.000000 0.000000
vn 0.000000 1.000000 0.000002
vn 0.000000 1.000000 0.000002
vn 0.000000 1.000000 0.000002
vn 0.000000 1.000000 0.000002
vn 0.000000 1.000000 -0.000003
vn 0.000000 1.000000 -0.000003
vn 0.000000 1.000000 -0.000003
vn 0.000000 1.000000 -0.000003
vn 0.000000 1.000000 0.000000
vn 0.000000 1.000000 0.000000
vn 0.000000 1.000000 0.000000
vn 0.000000 1.000000 0.000000
vn 0.000000 1.000000 -0.000001
vn 0.000000 1.000000 -0.000001
vn 0.000000 1.000000 -0.000001
vn 0.000000 1.000000 -0.000001
vn 0.000000 1.000000 0.000000
vn 0.000000 1.000000 0.000000
vn 0.000000 1.000000 0.000000
vn 0.000000 1.000000 0.000000
vn -0.587787 -0.000004 0.809015
vn -0.587787 -0.000004 0.809016
vn -0.587787 -0.000004 0.809016
vn -0.587787 -0.000004 0.809015
vn 0.000000 -0.000001 1.000000
vn 0.000000 -0.000001 1.000000
vn 0.000000 -0.000001 1.000000
vn 0.000000 -0.000001 1.000000
vn 0.587787 0.000001 0.809015
vn 0.587787 0.000001 0.809015
vn 0.587787 0.000001 0.809015
vn 0.587787 0.000001 0.809016
vn 0.951057 0.000000 0.309014
vn 0.951057 0.000000 0.309014
vn 0.951057 0.000000 0.309014
vn 0.951057 0.000000 0.309014
vn 0.951057 0.000001 -0.309014
vn 0.951057 0.000001 -0.309014
vn 0.951057 0.000001 -0.309014
vn 0.951057 0.000001 -0.309014
vn 0.587787 0.000005 -0.809016
vn 0.587787 0.000005 -0.809016
vn 0.587787 0.000005 -0.809016
vn 0.587787 0.000005 -0.809016
vn 0.000000 -0.000001 -1.000000
vn 0.000000 -0.000001 -1.000000
vn 0.000000 -0.000001 -1.000000
vn 0.000000 -0.000001 -1.000000
vn -0.587787 0.000000 -0.809015
vn -0.587787 0.000000 -0.809015
vn -0.587787 0.000000 -0.809015
vn -0.587787 0.000000 -0.809016
vn -0.951057 0.000000 -0.309014
vn -0.951057 0.000000 -0.309014
vn -0.951057 0.000000 -0.309014
vn -0.951057 0.000000 -0.309014
vn -0.951057 -0.000001 0.309014
vn -0.951057 -0.000001 0.309014
vn -0.951057 -0.000001 0.309014
vn -0.951057 -0.000001 0.309014
vn 0.000000 1.000000 -0.000000
vn 0.000000 1.000000 0.000001
vn 0.000000 1.000000 0.000001
vn 0.000000 1.000000 -0.000000
vn 0.000000 1.000000 -0.000001
vn 0.000000 1.000000 -0.000001
vn 0.000000 1.000000 0.000001
vn 0.000000 1.000000 0.000001
vn 0.000000 1.000000 0.000001
vn 0.000000 1.000000 0.000001
vn 0.000000 1.000000 0.000001
vn 0.000000 1.000000 0.000001
vn 0.000000 1.000000 0.000000
vn 0.000000 1.000000 0.000000
vn 0.000000 1.000000 0.000000
vn 0.000000 1.000000 0.000000
vn 0.000000 1.000000 0.000000
vn 0.000000 1.000000 0.000000
vn 0.806221 -0.083065 -0.585754
vn 0.307949 -0.083065 -0.947770
vn 0.307949 -0.083065 -0.947770
vn 0.806221 -0.083065 -0.585754
vn -0.307949 -0.083065 -0.947770
vn -0.307949 -0.083065 -0.947770
vn -0.806221 -0.083066 -0.585754
vn -0.806221 -0.083066 -0.585754
vn -0.996544 -0.083066 0.000000
vn -0.996544 -0.083066 0.000000
vn -0.806221 -0.083065 0.585754
vn -0.806221 -0.083065 0.585754
vn -0.307949 -0.083065 0.947770
vn -0.307949 -0.083065 0.947770
vn 0.307949 -0.083065 0.947770
vn 0.307949 -0.083065 0.947770
vn 0.806221 -0.083065 0.585754
vn 0.806221 -0.083065 0.585754
vn 0.996544 -0.083065 0.000000
vn 0.996544 -0.083065 0.000000
vn 0.806433 -0.079862 -0.585908
vn 0.308030 -0.079862 -0.948019
vn 0.308030 -0.079862 -0.948019
vn 0.806433 -0.079862 -0.585908
vn -0.308030 -0.079862 -0.948019
vn -0.308030 -0.079862 -0.948019
vn -0.806433 -0.079862 -0.585908
vn -0.806433 -0.079862 -0.585908
vn -0.996806 -0.079861 -0.000000
vn -0.996806 -0.079861 -0.000000
vn -0.806433 -0.079862 0.585908
vn -0.806433 -0.079862 0.585908
vn -0.308030 -0.079862 0.948019
vn -0.308030 -0.079862 0.948019
vn 0.308030 -0.079862 0.948019
vn 0.308030 -0.079862 0.948019
vn 0.806433 -0.079862 0.585908
vn 0.806433 -0.079862 0.585908
vn 0.996806 -0.079862 0.000000
vn 0.996806 -0.079862 0.000000
vn 0.000000 -1.000000 0.000001
vn 0.000000 -1.000000 0.000001
vn 0.000000 -1.000000 0.000001
vn 0.000000 -1.000000 0.000001
vn 0.000000 1.000000 0.000000
vn 0.000000 1.000000 0.000000
vn 0.000000 1.000000 0.000000
vn 0.000000 1.000000 0.000000
vn 0.000000 -1.000000 -0.000004
vn 0.000000 -1.000000 -0.000004
vn 0.000000 -1.000000 -0.000004
vn 0.000000 -1.000000 -0.000004
vn 0.000000 1.000000 -0.000000
vn 0.000000 1.000000 -0.000000
vn 0.000000 1.000000 -0.000000
vn 0.000000 1.000000 -0.000000
vn 0.000000 -1.000000 0.000004
vn 0.000000 -1.000000 0.000004
vn 0.000000 -1.000000 0.000004
vn 0.000000 -1.000000 0.000004
vn 0.000000 1.000000 0.000002
vn 0.000000 1.000000 0.000002
vn 0.000000 1.000000 0.000002
vn 0.000000 1.000000 0.000002
vn 0.000000 -1.000000 -0.000001
vn 0.000000 -1.000000 -0.000001
vn 0.000000 -1.000000 -0.000001
vn 0.000000 -1.000000 -0.000001
vn 0.000000 1.000000 0.000006
vn 0.000000 1.000000 0.000006
vn 0.000000 1.000000 0.000006
vn 0.000000 1.000000 0.000006
vn 0.000000 -1.000000 0.000001
vn 0.000000 -1.000000 0.000001
vn 0.000000 -1.000000 0.000001
vn 0.000000 -1.000000 0.000001
vn 0.000000 1.000000 -0.000005
vn 0.000000 1.000000 -0.000005
vn 0.000000 1.000000 -0.000005
vn 0.000000 1.000000 -0.000005
vn 0.000000 -1.000000 -0.000001
vn 0.000000 -1.000000 -0.000001
vn 0.000000 -1.000000 -0.000001
vn 0.000000 -1.000000 -0.000001
vn 0.000000 1.000000 -0.000000
vn 0.000000 1.000000 -0.000000
vn 0.000000 1.000000 -0.000000
vn 0.000000 1.000000 -0.000000
vn 0.000000 -1.000000 0.000004
vn 0.000000 -1.000000 0.000004
vn 0.000000 -1.000000 0.000004
vn 0.000000 -1.000000 0.000004
vn 0.000000 1.000000 0.000000
vn 0.000000 1.000000 0.000000
vn 0.000000 1.000000 0.000000
vn 0.000000 1.000000 0.000000
vn 0.000000 -1.000000 -0.000004
vn 0.000000 -1.000000 -0.000004
vn 0.000000 -1.000000 -0.000004
vn 0.000000 -1.000000 -0.000004
vn 0.000000 1.000000 -0.000002
vn 0.000000 1.000000 -0.000002
vn 0.000000 1.000000 -0.000002
vn 0.000000 1.000000 -0.000002
vn 0.000000 -1.000000 0.000001
vn 0.000000 -1.000000 0.000001
vn 0.000000 -1.000000 0.000001
vn 0.000000 -1.000000 0.000001
vn 0.000000 1.000000 -0.000006
vn 0.000000 1.000000 -0.000006
vn 0.000000 1.000000 -0.000006
vn 0.000000 1.000000 -0.000006
vn 0.000000 -1.000000 -0.000001
vn 0.000000 -1.000000 -0.000001
vn 0.000000 -1.000000 -0.000001
vn 0.000000 -1.000000 -0.000001
vn 0.000000 1.000000 0.000005
vn 0.000000 1.000000 0.000005
vn 0.000000 1.000000 0.000005
vn 0.000000 1.000000 0.000005
s 1
g Cup
f 44/93/1 45/94/2 12/22/3 11/21/4
f 45/94/2 46/95/5 13/23/6 12/22/3
f 46/95/5 47/96/7 14/24/8 13/23/6
f 47/96/7 48/97/9 15/25/10 14/24/8
f 48/97/9 49/98/11 16/26/12 15/25/10
f 49/98/11 50/99/13 17/27/14 16/26/12
f 50/99/13 51/100/15 18/28/16 17/27/14
f 51/100/15 52/101/17 19/29/18 18/28/16
f 52/101/17 53/102/19 20/103/20 19/29/18
f 53/104/19 44/93/1 11/21/4 20/30/20
s 2
f 2/105/21 1/106/22 21/107/23
f 3/108/24 2/2/21 21/109/23
f 4/110/25 3/3/24 21/111/23
f 5/112/26 4/4/25 21/113/23
f 6/114/27 5/5/26 21/115/23
f 7/116/28 6/6/27 21/117/23
f 8/118/29 7/7/28 21/119/23
f 9/120/30 8/8/29 21/121/23
f 10/122/31 9/9/30 21/123/23
f 1/1/22 10/10/31 21/31/23
s off
f 11/175/32 12/176/33 23/177/34 22/178/35
f 12/176/36 13/179/37 24/180/38 23/177/39
f 13/179/40 14/183/41 25/184/42 24/180/43
f 14/183/44 15/187/45 26/188/46 25/184/47
f 15/187/48 16/191/49 27/192/50 26/188/51
f 16/191/52 17/193/53 28/194/54 27/192/55
f 17/193/56 18/189/57 29/190/58 28/194/59
f 18/189/60 19/185/61 30/186/62 29/190/63
f 19/185/64 20/181/65 31/182/66 30/186/67
f 20/181/68 11/175/69 22/178/70 31/182/71
f 22/32/72 23/33/73 33/34/74 32/52/75
f 23/33/76 24/35/77 34/36/78 33/34/79
f 24/37/80 25/38/81 35/39/82 34/124/83
f 25/38/84 26/40/85 36/41/86 35/39/87
f 26/40/88 27/42/89 37/43/90 36/41/91
f 27/42/92 28/44/93 38/45/94 37/43/95
f 28/44/96 29/46/97 39/47/98 38/45/99
f 29/46/100 30/48/101 40/49/102 39/47/103
f 30/48/104 31/50/105 41/51/106 40/49/107
f 31/50/108 22/32/109 32/52/110 41/51/111
s 3
f 33/163/112 34/164/113 35/165/114 43/166/115
f 33/163/112 43/166/115 41/169/116 32/170/117
s 4
f 38/171/118 42/168/119 36/167/120 37/172/121
f 40/173/122 42/168/119 38/171/118 39/174/123
s 5
f 36/167/124 42/168/125 43/166/126 35/165/127
f 43/166/126 42/168/125 40/173/128 41/169/129
s 6
f 64/125/130 65/126/131 66/127/132 67/128/133
f 65/126/131 68/129/134 69/130/135 66/127/132
f 68/129/134 70/131/136 71/132/137 69/130/135
f 70/131/136 72/133/138 73/134/139 71/132/137
f 72/133/138 74/135/140 75/136/141 73/134/139
f 74/135/140 76/137/142 77/138/143 75/136/141
f 76/137/142 78/139/144 79/140/145 77/138/143
f 78/139/144 80/141/146 81/142/147 79/140/145
f 80/141/146 82/143/148 83/144/149 81/142/147
f 82/145/148 64/125/130 67/128/133 83/146/149
s 7
f 1/11/150 2/12/151 55/147/152 54/148/153
f 2/12/151 3/13/154 56/149/155 55/147/152
f 3/13/154 4/14/156 57/150/157 56/149/155
f 4/14/156 5/15/158 58/151/159 57/150/157
f 5/15/158 6/16/160 59/152/161 58/151/159
f 6/16/160 7/17/162 60/153/163 59/152/161
f 7/17/162 8/18/164 61/154/165 60/153/163
f 8/18/164 9/19/166 62/155/167 61/154/165
f 9/19/166 10/156/168 63/157/169 62/155/167
f 10/20/168 1/11/150 54/148/153 63/158/169
s off
f 54/63/170 55/64/171 65/74/172 64/73/173
f 45/54/174 44/53/175 67/76/176 66/75/177
f 55/64/178 56/65/179 68/77/180 65/74/181
f 46/55/182 45/54/183 66/75/184 69/78/185
f 56/65/186 57/66/187 70/79/188 68/77/189
f 47/56/190 46/55/191 69/78/192 71/80/193
f 57/66/194 58/67/195 72/81/196 70/79/197
f 48/57/198 47/56/199 71/80/200 73/82/201
f 58/67/202 59/68/203 74/83/204 72/81/205
f 49/58/206 48/57/207 73/82/208 75/84/209
f 59/68/210 60/69/211 76/85/212 74/83/213
f 50/59/214 49/58/215 75/84/216 77/86/217
f 60/69/218 61/70/219 78/87/220 76/85/221
f 51/60/222 50/59/223 77/86/224 79/88/225
f 61/70/226 62/71/227 80/89/228 78/87/229
f 52/61/230 51/60/231 79/88/232 81/90/233
f 62/71/234 63/159/235 82/160/236 80/89/237
f 53/161/238 52/61/239 81/90/240 83/162/241
f 63/72/242 54/63/243 64/73/244 82/91/245
f 44/53/246 53/62/247 83/92/248 67/76/249
