# This file uses centimeters as units for non-parametric coordinates.

g default
v -1.451725 10.595350 -2.474937
v -1.634987 10.595350 -2.474937
v -1.726618 10.595350 -2.316228
v -1.634987 10.595350 -2.157518
v -1.451725 10.595350 -2.157518
v -1.360094 10.595350 -2.316228
v -1.451725 11.454174 -2.474937
v -1.634987 11.454174 -2.474937
v -1.726618 11.454174 -2.316228
v -1.634987 11.454174 -2.157518
v -1.451725 11.454174 -2.157518
v -1.360094 11.454174 -2.316228
v -1.543356 10.595350 -2.316228
v -1.543356 11.454174 -2.316228
v -1.913755 8.673104 -1.886509
v 1.161244 8.673104 -1.886509
v -1.913755 9.970611 -1.886509
v 1.161244 9.460599 -1.886509
v -1.913755 9.970611 -4.932234
v 1.161244 9.460599 -4.932234
v -1.913755 8.673104 -4.932234
v 1.161244 8.673104 -4.932234
v -1.913755 9.970611 -2.823365
v 1.161244 9.460599 -2.823365
v 1.161244 8.673104 -2.823365
v -1.913755 8.673104 -2.823365
v -0.503407 8.673104 -1.886509
v -0.503407 8.673104 -2.823365
v -0.503407 8.673104 -4.932234
v -0.503407 9.736693 -4.932234
v -0.503407 9.736693 -2.823365
v -0.503407 9.736693 -1.886509
v -1.913755 10.771241 -1.886509
v -0.503407 10.537324 -1.886509
v -0.503407 10.537324 -2.823365
v -1.913755 10.771241 -2.823365
v -1.515361 11.199885 -1.767012
v -1.157725 11.199885 -2.700873
v -1.515361 12.199885 -1.767012
v -1.157725 12.199885 -2.700873
v -1.926364 12.199885 -1.924411
v -1.568728 12.199885 -2.858272
v -1.926364 11.199885 -1.924411
v -1.568728 11.199885 -2.858272
vt 0.861011 0.779265
vt 0.880876 0.779265
vt 0.880876 0.886761
vt 0.861011 0.886761
vt 0.841146 0.779265
vt 0.841146 0.886761
vt 0.898428 0.890513
vt 0.918293 0.890513
vt 0.918293 0.998008
vt 0.898428 0.998008
vt 0.938158 0.890513
vt 0.938158 0.998008
vt 0.551170 0.654587
vt 0.452603 0.654587
vt 0.452603 0.390629
vt 0.551170 0.390629
vt 0.452603 0.771849
vt 0.551170 0.771849
vt 0.184221 0.771849
vt 0.184221 0.507891
vt 0.346624 0.507891
vt 0.346624 0.771849
vt 0.184221 0.390629
vt 0.346624 0.390629
vt 0.446835 0.390629
vt 0.446835 0.507891
vt 0.705572 0.896528
vt 0.705572 0.779265
vt 0.805784 0.779265
vt 0.805784 0.896528
vt 0.342822 0.775601
vt 0.459709 0.775601
vt 0.459709 0.900767
vt 0.342822 0.900767
vt 0.582458 0.904431
vt 0.465571 0.904431
vt 0.465571 0.779265
vt 0.582458 0.779265
vt 0.852931 0.924920
vt 0.852931 0.901982
vt 0.872796 0.913451
vt 0.872796 0.890513
vt 0.872796 0.936389
vt 0.892661 0.901982
vt 0.892661 0.924920
vt 0.847163 0.911749
vt 0.847163 0.934687
vt 0.827298 0.923218
vt 0.827298 0.946156
vt 0.827298 0.900280
vt 0.807433 0.934687
vt 0.807433 0.911749
vt 0.652591 0.210349
vt 0.388633 0.210349
vt 0.388633 0.001992
vt 0.652591 0.001992
vt 0.388633 0.386877
vt 0.652591 0.386877
vt 0.271371 0.210349
vt 0.271371 0.001992
vt 0.820895 0.598986
vt 0.556937 0.598986
vt 0.556937 0.390629
vt 0.820895 0.390629
vt 0.556937 0.775513
vt 0.820895 0.775513
vt 0.938158 0.598986
vt 0.938158 0.390629
vt 0.938158 0.775513
vt 0.061191 0.567156
vt 0.061191 0.390629
vt 0.178453 0.390629
vt 0.178453 0.567156
vt 0.189073 0.775601
vt 0.233837 0.892488
vt 0.182393 0.912189
vt 0.137629 0.795302
vt 0.240225 0.892488
vt 0.284989 0.775601
vt 0.336433 0.795302
vt 0.291669 0.912189
vt 0.834771 0.886761
vt 0.811833 0.886761
vt 0.811833 0.779265
vt 0.834771 0.779265
vt 0.886948 0.779265
vt 0.909886 0.779265
vt 0.909886 0.886761
vt 0.886948 0.886761
vt 0.134997 0.210349
vt 0.001873 0.210349
vt 0.001873 0.001992
vt 0.100440 0.001992
vt 0.001873 0.386877
vt 0.164276 0.386877
vt 0.235209 0.210349
vt 0.264487 0.386877
vt 0.822174 0.210349
vt 0.689049 0.210349
vt 0.723606 0.001992
vt 0.822174 0.001992
vt 0.659770 0.386877
vt 0.822174 0.386877
vt 0.131362 0.570908
vt 0.102084 0.747435
vt 0.001873 0.747435
vt 0.031151 0.570908
vt 0.639763 0.904431
vt 0.588320 0.904431
vt 0.588320 0.779265
vt 0.639763 0.779265
vt 0.646946 0.779265
vt 0.698389 0.779265
vt 0.698389 0.904431
vt 0.646946 0.904431
vn 0.000000 0.000000 -1.000000
vn 0.000000 0.000000 -1.000000
vn 0.000000 0.000000 -1.000000
vn 0.000000 0.000000 -1.000000
vn -0.866025 0.000000 -0.500001
vn -0.866025 0.000000 -0.500001
vn -0.866025 0.000000 -0.500001
vn -0.866025 0.000000 -0.500001
vn -0.866026 0.000000 0.500000
vn -0.866026 0.000000 0.500000
vn -0.866026 0.000000 0.500000
vn -0.866026 0.000000 0.500000
vn 0.000000 0.000000 1.000000
vn 0.000000 0.000000 1.000000
vn 0.000000 0.000000 1.000000
vn 0.000000 0.000000 1.000000
vn 0.866026 0.000000 0.500000
vn 0.866026 0.000000 0.500000
vn 0.866026 0.000000 0.500000
vn 0.866026 0.000000 0.500000
vn 0.866025 0.000000 -0.500000
vn 0.866025 0.000000 -0.500000
vn 0.866025 0.000000 -0.500000
vn 0.866025 0.000000 -0.500000
vn 0.000000 -1.000000 -0.000002
vn 0.000000 -1.000000 0.000000
vn 0.000000 -1.000000 -0.000001
vn 0.000000 -1.000000 -0.000002
vn 0.000000 -1.000000 -0.000002
vn 0.000000 -1.000000 0.000000
vn 0.000000 -1.000000 0.000002
vn 0.000000 1.000000 0.000004
vn 0.000000 1.000000 -0.000000
vn 0.000000 1.000000 -0.000001
vn 0.000000 1.000000 -0.000004
vn 0.000000 1.000000 -0.000008
vn 0.000000 1.000000 -0.000004
vn 0.000000 1.000000 0.000004
vn -0.000000 0.000000 1.000000
vn -0.000000 0.000000 1.000000
vn -0.000000 0.000000 1.000000
vn -0.000000 0.000000 1.000000
vn 0.163622 0.986523 0.000000
vn 0.163622 0.986523 0.000000
vn 0.163622 0.986523 0.000000
vn 0.163622 0.986523 0.000000
vn 0.000000 0.000000 -1.000000
vn 0.000000 0.000000 -1.000000
vn 0.000000 0.000000 -1.000000
vn 0.000000 0.000000 -1.000000
vn 0.000000 -1.000000 0.000000
vn 0.000000 -1.000000 0.000000
vn 0.000000 -1.000000 0.000000
vn 0.000000 -1.000000 0.000000
vn 1.000000 0.000000 0.000000
vn 1.000000 0.000000 0.000000
vn 1.000000 0.000000 0.000000
vn 1.000000 0.000000 0.000000
vn -1.000000 0.000000 0.000000
vn -1.000000 0.000000 0.000000
vn -1.000000 0.000000 0.000000
vn -1.000000 0.000000 0.000000
vn 0.163622 0.986523 0.000000
vn 0.163622 0.986523 0.000000
vn 1.000000 0.000000 0.000000
vn 1.000000 0.000000 0.000000
vn 0.000000 -1.000000 0.000000
vn 0.000000 -1.000000 0.000000
vn -1.000000 0.000000 0.000000
vn -1.000000 0.000000 0.000000
vn 0.000000 -1.000000 0.000000
vn 0.000000 -1.000000 0.000000
vn 0.000000 -1.000000 0.000000
vn 0.000000 0.000000 -1.000000
vn 0.000000 0.000000 -1.000000
vn 0.163622 0.986523 0.000000
vn 0.163622 0.986523 0.000000
vn 0.163622 0.986523 0.000000
vn 0.163622 0.986523 0.000000
vn 0.163622 0.986523 0.000000
vn 0.163622 0.986523 0.000000
vn 0.000000 0.000000 1.000000
vn 0.000000 0.000000 1.000000
vn 0.000000 0.000000 1.000000
vn 0.000000 0.000000 1.000000
vn 0.000000 0.000000 1.000000
vn 0.000000 0.000000 1.000000
vn 1.000000 0.000000 0.000000
vn 1.000000 0.000000 0.000000
vn 1.000000 0.000000 0.000000
vn 1.000000 0.000000 0.000000
vn 0.000000 0.000000 -1.000000
vn 0.000000 0.000000 -1.000000
vn 0.000000 0.000000 -1.000000
vn 0.000000 0.000000 -1.000000
vn -1.000000 0.000000 0.000000
vn -1.000000 0.000000 0.000000
vn -1.000000 0.000000 0.000000
vn -1.000000 0.000000 0.000000
vn 0.933861 0.000000 0.357636
vn 0.933861 0.000000 0.357636
vn 0.933861 0.000000 0.357636
vn 0.933861 0.000000 0.357636
vn 0.000000 1.000000 0.000000
vn 0.000000 1.000000 0.000000
vn 0.000000 1.000000 0.000000
vn 0.000000 1.000000 0.000000
vn -0.933861 0.000000 -0.357636
vn -0.933861 0.000000 -0.357636
vn -0.933861 0.000000 -0.357636
vn -0.933861 0.000000 -0.357636
vn 0.000000 -1.000000 -0.000001
vn 0.000000 -1.000000 -0.000001
vn 0.000000 -1.000000 -0.000001
vn 0.000000 -1.000000 -0.000001
vn 0.357636 0.000000 -0.933861
vn 0.357636 0.000000 -0.933861
vn 0.357636 0.000000 -0.933861
vn 0.357636 0.000000 -0.933861
vn -0.357636 0.000000 0.933861
vn -0.357636 0.000000 0.933861
vn -0.357636 0.000000 0.933861
vn -0.357636 0.000000 0.933861
s off
g Register
f 1/82/1 2/83/2 8/84/3 7/85/4
f 2/5/5 3/1/6 9/4/7 8/6/8
f 3/1/9 4/2/10 10/3/11 9/4/12
f 4/86/13 5/87/14 11/88/15 10/89/16
f 5/7/17 6/8/18 12/9/19 11/10/20
f 6/8/21 1/11/22 7/12/23 12/9/24
s 1
f 2/39/25 1/40/26 13/41/27
f 3/43/28 2/39/25 13/41/27
f 4/45/29 3/43/28 13/41/27
f 5/44/30 4/45/29 13/41/27
f 6/42/31 5/44/30 13/41/27
f 1/40/26 6/42/31 13/41/27
s 2
f 7/46/32 8/47/33 14/48/34
f 8/47/33 9/49/35 14/48/34
f 9/49/35 10/51/36 14/48/34
f 10/51/36 11/52/37 14/48/34
f 11/52/37 12/50/38 14/48/34
f 12/50/38 7/46/32 14/48/34
s 3
f 32/90/39 27/91/40 16/92/41 18/93/42
s 4
f 30/53/43 31/54/44 24/55/45 20/56/46
s 5
f 29/98/47 30/99/48 20/100/49 22/101/50
s 6
f 28/61/51 29/62/52 22/63/53 25/64/54
s 7
f 24/13/55 25/14/56 22/15/57 20/16/58
s 8
f 21/19/59 26/20/60 23/21/61 19/22/62
s 4
f 31/54/44 32/59/63 18/60/64 24/55/45
s 7
f 16/17/65 25/14/56 24/13/55 18/18/66
s 6
f 27/67/67 28/61/51 25/64/54 16/68/68
s 8
f 23/21/61 26/20/60 15/23/69 17/24/70
s 6
f 26/66/71 28/61/51 27/67/67 15/69/72
f 21/65/73 29/62/52 28/61/51 26/66/71
s 5
f 19/102/74 30/99/48 29/98/47 21/103/75
s 4
f 23/57/76 31/54/44 30/53/43 19/58/77
s off
f 33/70/78 34/71/79 35/72/80 36/73/81
s 3
f 15/94/82 27/91/40 32/90/39 17/95/83
s off
f 17/95/84 32/90/85 34/96/86 33/97/87
f 32/27/88 31/28/89 35/29/90 34/30/91
f 31/104/92 23/105/93 36/106/94 35/107/95
f 23/21/96 17/24/97 33/25/98 36/26/99
f 37/31/100 38/32/101 40/33/102 39/34/103
f 39/74/104 40/75/105 42/76/106 41/77/107
f 41/35/108 42/36/109 44/37/110 43/38/111
f 43/78/112 44/79/113 38/80/114 37/81/115
f 38/108/116 44/109/117 42/110/118 40/111/119
f 43/112/120 37/113/121 39/114/122 41/115/123
