# This file uses centimeters as units for non-parametric coordinates.

g default
v 4.881102 6.539863 -1.585966
v 4.152114 6.539863 -3.016687
v 3.016687 6.539863 -4.152114
v 1.585966 6.539863 -4.881101
v 0.000000 6.539863 -5.132294
v -1.585966 6.539863 -4.881101
v -3.016686 6.539863 -4.152113
v -4.152112 6.539863 -3.016686
v -4.881100 6.539863 -1.585966
v -5.132292 6.539863 0.000000
v -4.881100 6.539863 1.585966
v -4.152112 6.539863 3.016686
v -3.016686 6.539863 4.152112
v -1.585966 6.539863 4.881100
v 0.000000 6.539863 5.132292
v 1.585965 6.539863 4.881100
v 3.016686 6.539863 4.152112
v 4.152112 6.539863 3.016686
v 4.881100 6.539863 1.585965
v 5.132292 6.539863 0.000000
v 4.881102 6.787929 -1.585966
v 4.152114 6.787929 -3.016687
v 3.016687 6.787929 -4.152114
v 1.585966 6.787929 -4.881101
v 0.000000 6.787929 -5.132294
v -1.585966 6.787929 -4.881101
v -3.016686 6.787929 -4.152113
v -4.152112 6.787929 -3.016686
v -4.881100 6.787929 -1.585966
v -5.132292 6.787929 0.000000
v -4.881100 6.787929 1.585966
v -4.152112 6.787929 3.016686
v -3.016686 6.787929 4.152112
v -1.585966 6.787929 4.881100
v 0.000000 6.787929 5.132292
v 1.585965 6.787929 4.881100
v 3.016686 6.787929 4.152112
v 4.152112 6.787929 3.016686
v 4.881100 6.787929 1.585965
v 5.132292 6.787929 0.000000
v 0.000000 6.787929 0.000000
v 0.549490 6.539863 -0.178541
v 0.467424 6.539863 -0.339603
v 0.339602 6.539863 -0.467425
v 0.178539 6.539863 -0.549491
v 0.000000 6.539863 -0.577769
v -0.178540 6.539863 -0.549491
v -0.339602 6.539863 -0.467425
v -0.467424 6.539863 -0.339603
v -0.549490 6.539863 -0.178541
v -0.577769 6.539863 -0.000001
v -0.549490 6.539863 0.178539
v -0.467424 6.539863 0.339601
v -0.339602 6.539863 0.467423
v -0.178540 6.539863 0.549489
v 0.000000 6.539863 0.577767
v 0.178539 6.539863 0.549489
v 0.339602 6.539863 0.467423
v 0.467423 6.539863 0.339601
v 0.549489 6.539863 0.178539
v 0.577767 6.539863 -0.000001
vt 0.175881 0.282937
vt 0.088710 0.282937
vt 0.088711 0.264194
vt 0.175881 0.264194
vt 0.019531 0.282937
vt 0.019531 0.264194
vt 0.272511 0.282937
vt 0.272511 0.264194
vt 0.369141 0.282937
vt 0.369141 0.264194
vt 0.456312 0.282937
vt 0.456312 0.264194
vt 0.525491 0.282937
vt 0.525491 0.264194
vt 0.456405 0.293830
vt 0.543595 0.293830
vt 0.543595 0.312576
vt 0.456405 0.312576
vt 0.640245 0.293830
vt 0.640245 0.312576
vt 0.387211 0.293830
vt 0.387211 0.312576
vt 0.736896 0.293830
vt 0.736896 0.312576
vt 0.824085 0.293830
vt 0.824085 0.312576
vt 0.893279 0.293830
vt 0.893279 0.312576
vt 0.755216 0.418690
vt 0.814500 0.500287
vt 0.527266 0.646639
vt 0.845667 0.596210
vt 0.673619 0.359406
vt 0.845667 0.697070
vt 0.577696 0.328239
vt 0.814499 0.792992
vt 0.476836 0.328239
vt 0.755216 0.874590
vt 0.380913 0.359406
vt 0.673619 0.933873
vt 0.299317 0.418689
vt 0.577695 0.965040
vt 0.240032 0.500286
vt 0.476836 0.965040
vt 0.208865 0.596210
vt 0.380913 0.933874
vt 0.208865 0.697069
vt 0.299316 0.874590
vt 0.240033 0.792992
vt 0.461553 0.040710
vt 0.461553 0.043902
vt 0.452611 0.042486
vt 0.452611 0.042127
vt 0.460567 0.046938
vt 0.452500 0.042828
vt 0.460567 0.037674
vt 0.452500 0.041785
vt 0.458691 0.049520
vt 0.452289 0.043118
vt 0.458691 0.035092
vt 0.452289 0.041494
vt 0.456108 0.051396
vt 0.451998 0.043330
vt 0.456108 0.033216
vt 0.451998 0.041283
vt 0.453073 0.052383
vt 0.451656 0.043441
vt 0.453073 0.032230
vt 0.451656 0.041172
vt 0.449881 0.052383
vt 0.451297 0.043441
vt 0.449881 0.032230
vt 0.451297 0.041172
vt 0.446845 0.051396
vt 0.450955 0.043330
vt 0.446845 0.033216
vt 0.450955 0.041283
vt 0.444263 0.049520
vt 0.450664 0.043118
vt 0.444263 0.035092
vt 0.450665 0.041494
vt 0.442386 0.046938
vt 0.450453 0.042828
vt 0.442386 0.037674
vt 0.450453 0.041785
vt 0.441400 0.043902
vt 0.450342 0.042486
vt 0.441400 0.040710
vt 0.450342 0.042127
vt 0.019531 0.293830
vt 0.106721 0.293830
vt 0.106721 0.312576
vt 0.019531 0.312577
vt 0.203371 0.293830
vt 0.203371 0.312576
vt 0.300022 0.293830
vt 0.300022 0.312576
vt 0.980469 0.293830
vt 0.805921 0.264194
vt 0.709291 0.282937
vt 0.709292 0.264194
vt 0.612662 0.282937
vt 0.612662 0.264194
vt 0.805921 0.282937
vt 0.980469 0.312576
vn 0.951057 0.000000 -0.309016
vn 0.809017 0.000000 -0.587785
vn 0.809017 0.000000 -0.587785
vn 0.951057 0.000000 -0.309016
vn 0.587785 0.000000 -0.809017
vn 0.587785 0.000000 -0.809017
vn 0.309017 0.000000 -0.951057
vn 0.309017 0.000000 -0.951057
vn -0.000000 0.000000 -1.000000
vn -0.000000 0.000000 -1.000000
vn -0.309017 0.000000 -0.951056
vn -0.309017 0.000000 -0.951056
vn -0.587785 0.000000 -0.809017
vn -0.587785 0.000000 -0.809017
vn -0.809017 0.000000 -0.587785
vn -0.809017 0.000000 -0.587785
vn -0.951056 0.000000 -0.309017
vn -0.951056 0.000000 -0.309017
vn -1.000000 0.000000 0.000000
vn -1.000000 0.000000 0.000000
vn -0.951056 0.000000 0.309017
vn -0.951056 0.000000 0.309017
vn -0.809017 0.000000 0.587785
vn -0.809017 0.000000 0.587785
vn -0.587785 0.000000 0.809017
vn -0.587785 0.000000 0.809017
vn -0.309017 0.000000 0.951057
vn -0.309017 0.000000 0.951057
vn 0.000000 0.000000 1.000000
vn 0.000000 0.000000 1.000000
vn 0.309017 0.000000 0.951056
vn 0.309017 0.000000 0.951056
vn 0.587785 0.000000 0.809017
vn 0.587785 0.000000 0.809017
vn 0.809017 0.000000 0.587785
vn 0.809017 0.000000 0.587785
vn 0.951057 0.000000 0.309017
vn 0.951057 0.000000 0.309017
vn 1.000000 0.000000 0.000001
vn 1.000000 0.000000 0.000001
vn 0.000000 1.000000 0.000000
vn 0.000000 1.000000 0.000000
vn 0.000000 1.000000 0.000000
vn 0.000000 1.000000 0.000000
vn 0.000000 1.000000 0.000000
vn 0.000000 1.000000 0.000000
vn 0.000000 1.000000 0.000000
vn 0.000000 1.000000 0.000000
vn 0.000000 1.000000 0.000000
vn 0.000000 1.000000 0.000000
vn 0.000000 1.000000 0.000000
vn 0.000000 1.000000 0.000000
vn 0.000000 1.000000 0.000000
vn 0.000000 1.000000 0.000000
vn 0.000000 1.000000 0.000000
vn 0.000000 1.000000 0.000000
vn 0.000000 1.000000 0.000000
vn 0.000000 1.000000 0.000000
vn 0.000000 1.000000 0.000000
vn 0.000000 1.000000 0.000000
vn 0.000000 1.000000 0.000000
vn 0.000000 -1.000000 0.000000
vn 0.000000 -1.000000 0.000000
vn 0.000000 -1.000000 0.000000
vn 0.000000 -1.000000 0.000000
vn 0.000000 -1.000000 0.000000
vn 0.000000 -1.000000 0.000000
vn 0.000000 -1.000000 0.000000
vn 0.000000 -1.000000 0.000000
vn 0.000000 -1.000000 0.000000
vn 0.000000 -1.000000 0.000000
vn 0.000000 -1.000000 0.000000
vn 0.000000 -1.000000 0.000000
vn 0.000000 -1.000000 -0.000000
vn 0.000000 -1.000000 -0.000000
vn 0.000000 -1.000000 -0.000000
vn 0.000000 -1.000000 -0.000000
vn 0.000000 -1.000000 0.000000
vn 0.000000 -1.000000 0.000000
vn 0.000000 -1.000000 0.000000
vn 0.000000 -1.000000 0.000000
vn 0.000000 -1.000000 0.000000
vn 0.000000 -1.000000 0.000000
vn 0.000000 -1.000000 0.000000
vn 0.000000 -1.000000 0.000000
vn 0.000000 -1.000000 0.000000
vn 0.000000 -1.000000 0.000000
vn 0.000000 -1.000000 0.000000
vn 0.000000 -1.000000 0.000000
vn 0.000000 -1.000000 0.000000
vn 0.000000 -1.000000 0.000000
vn 0.000000 -1.000000 0.000000
vn 0.000000 -1.000000 0.000000
vn 0.000000 -1.000000 0.000000
vn 0.000000 -1.000000 0.000000
vn 0.000000 -1.000000 0.000000
vn 0.000000 -1.000000 0.000000
vn 0.000000 -1.000000 -0.000000
vn 0.000000 -1.000000 -0.000000
vn 0.000000 -1.000000 -0.000000
vn 0.000000 -1.000000 -0.000000
vn 0.000000 -1.000000 0.000000
vn 0.000000 -1.000000 0.000000
vn 0.000000 -1.000000 0.000000
vn 0.000000 -1.000000 0.000000
vn 0.000000 -1.000000 0.000000
vn 0.000000 -1.000000 0.000000
vn 0.000000 -1.000000 0.000000
vn 0.000000 -1.000000 0.000000
vn 0.000000 -1.000000 -0.000000
vn 0.000000 -1.000000 -0.000000
vn 0.000000 -1.000000 -0.000000
vn 0.000000 -1.000000 -0.000000
vn 0.000000 -1.000000 0.000000
vn 0.000000 -1.000000 0.000000
vn 0.000000 -1.000000 0.000000
vn 0.000000 -1.000000 0.000000
vn 0.000000 -1.000000 0.000000
vn 0.000000 -1.000000 0.000000
vn 0.000000 -1.000000 0.000000
vn 0.000000 -1.000000 0.000000
vn 0.000000 -1.000000 0.000000
vn 0.000000 -1.000000 0.000000
vn 0.000000 -1.000000 0.000000
vn 0.000000 -1.000000 0.000000
vn 0.000000 -1.000000 0.000000
vn 0.000000 -1.000000 0.000000
vn 0.000000 -1.000000 0.000000
vn 0.000000 -1.000000 0.000000
vn 0.000000 -1.000000 0.000000
vn 0.000000 -1.000000 0.000000
vn 0.000000 -1.000000 0.000000
vn 0.000000 -1.000000 0.000000
vn 0.000000 -1.000000 -0.000000
vn 0.000000 -1.000000 -0.000000
vn 0.000000 -1.000000 -0.000000
vn 0.000000 -1.000000 -0.000000
vn 0.000000 -1.000000 0.000000
vn 0.000000 -1.000000 0.000000
vn 0.000000 -1.000000 0.000000
vn 0.000000 -1.000000 0.000000
s 1
g Top Table
f 1/1/1 2/2/2 22/3/3 21/4/4
f 2/2/2 3/5/5 23/6/6 22/3/3
f 3/90/5 4/91/7 24/92/8 23/93/6
f 4/91/7 5/94/9 25/95/10 24/92/8
f 5/94/9 6/96/11 26/97/12 25/95/10
f 6/96/11 7/21/13 27/22/14 26/97/12
f 7/21/13 8/15/15 28/18/16 27/22/14
f 8/15/15 9/16/17 29/17/18 28/18/16
f 9/16/17 10/19/19 30/20/20 29/17/18
f 10/19/19 11/23/21 31/24/22 30/20/20
f 11/23/21 12/25/23 32/26/24 31/24/22
f 12/25/23 13/27/25 33/28/26 32/26/24
f 13/27/25 14/98/27 34/105/28 33/28/26
f 14/104/27 15/100/29 35/101/30 34/99/28
f 15/100/29 16/102/31 36/103/32 35/101/30
f 16/102/31 17/13/33 37/14/34 36/103/32
f 17/13/33 18/11/35 38/12/36 37/14/34
f 18/11/35 19/9/37 39/10/38 38/12/36
f 19/9/37 20/7/39 40/8/40 39/10/38
f 20/7/39 1/1/1 21/4/4 40/8/40
s 2
f 21/29/41 22/30/42 41/31/43
f 22/30/42 23/32/44 41/31/43
f 23/32/44 24/34/45 41/31/43
f 24/34/45 25/36/46 41/31/43
f 25/36/46 26/38/47 41/31/43
f 26/38/47 27/40/48 41/31/43
f 27/40/48 28/42/49 41/31/43
f 28/42/49 29/44/50 41/31/43
f 29/44/50 30/46/51 41/31/43
f 30/46/51 31/48/52 41/31/43
f 31/48/52 32/49/53 41/31/43
f 32/49/53 33/47/54 41/31/43
f 33/47/54 34/45/55 41/31/43
f 34/45/55 35/43/56 41/31/43
f 35/43/56 36/41/57 41/31/43
f 36/41/57 37/39/58 41/31/43
f 37/39/58 38/37/59 41/31/43
f 38/37/59 39/35/60 41/31/43
f 39/35/60 40/33/61 41/31/43
f 40/33/61 21/29/41 41/31/43
s off
f 2/50/62 1/51/63 42/52/64 43/53/65
f 3/56/66 2/50/67 43/53/68 44/57/69
f 4/60/70 3/56/71 44/57/72 45/61/73
f 5/64/74 4/60/75 45/61/76 46/65/77
f 6/68/78 5/64/79 46/65/80 47/69/81
f 7/72/82 6/68/83 47/69/84 48/73/85
f 8/76/86 7/72/87 48/73/88 49/77/89
f 9/80/90 8/76/91 49/77/92 50/81/93
f 10/84/94 9/80/95 50/81/96 51/85/97
f 11/88/98 10/84/99 51/85/100 52/89/101
f 12/86/102 11/88/103 52/89/104 53/87/105
f 13/82/106 12/86/107 53/87/108 54/83/109
f 14/78/110 13/82/111 54/83/112 55/79/113
f 15/74/114 14/78/115 55/79/116 56/75/117
f 16/70/118 15/74/119 56/75/120 57/71/121
f 17/66/122 16/70/123 57/71/124 58/67/125
f 18/62/126 17/66/127 58/67/128 59/63/129
f 19/58/130 18/62/131 59/63/132 60/59/133
f 20/54/134 19/58/135 60/59/136 61/55/137
f 1/51/138 20/54/139 61/55/140 42/52/141
g default
v 0.549490 0.004189 -0.178541
v 0.339602 0.004189 -0.467425
v 0.178539 0.004189 -0.549491
v 0.000000 0.004189 -0.577769
v -0.339602 0.004189 -0.467425
v -0.467424 0.004189 -0.339603
v -0.549490 0.004189 -0.178541
v -0.549490 0.004189 0.178539
v -0.467424 0.004189 0.339601
v -0.339602 0.004189 0.467423
v 0.000000 0.004189 0.577767
v 0.178539 0.004189 0.549489
v 0.339602 0.004189 0.467423
v 0.549489 0.004189 0.178539
v 0.577767 0.004189 -0.000001
v 0.549490 0.797290 -0.178541
v 0.577767 0.797290 -0.000001
v 0.549489 0.797290 0.178539
v 0.467423 0.887973 0.339601
v 0.339602 0.797290 0.467423
v 0.178539 0.797290 0.549489
v 0.000000 0.797290 0.577767
v -0.178540 0.887973 0.549489
v -0.339602 0.797290 0.467423
v -0.467424 0.797290 0.339601
v -0.549490 0.797290 0.178539
v -0.577769 0.887973 -0.000001
v -0.549490 0.797290 -0.178541
v -0.467424 0.797290 -0.339603
v -0.339602 0.797290 -0.467425
v -0.178540 0.887973 -0.549491
v 0.000000 0.797290 -0.577769
v 0.178539 0.797290 -0.549491
v 0.339602 0.797290 -0.467425
v 0.467424 0.887973 -0.339603
v 1.827036 0.119341 -1.298411
v 2.140800 0.119341 -0.682619
v 2.140800 0.004189 -0.682619
v 1.827036 0.004189 -1.298411
v 1.338334 0.119341 -1.787119
v 1.338334 0.004189 -1.787119
v -0.642700 0.119341 -2.100885
v 0.039920 0.119341 -2.209000
v 0.039920 0.004189 -2.209000
v -0.642700 0.004189 -2.100885
v -1.258491 0.119341 -1.787116
v -1.258491 0.004189 -1.787116
v -2.169079 0.119341 -0.000001
v -2.060964 0.119341 -0.682619
v -2.060964 0.004189 -0.682619
v -2.169079 0.004189 -0.000001
v -2.060964 0.119341 0.682618
v -2.060964 0.004189 0.682618
v -0.642700 0.119341 2.100881
v -1.258491 0.119341 1.787117
v -1.258491 0.004189 1.787117
v -0.642700 0.004189 2.100881
v 0.039920 0.119341 2.208998
v 0.039920 0.004189 2.208998
v 1.827035 0.119341 1.298410
v 1.338332 0.119341 1.787117
v 1.338332 0.004189 1.787117
v 1.827035 0.004189 1.298410
v 2.140800 0.119341 0.682618
v 2.140800 0.004189 0.682618
v 0.549490 6.527063 -0.178541
v 0.577767 6.527063 -0.000001
v 0.549489 6.527063 0.178539
v 0.467423 6.527265 0.339601
v 0.339602 6.527063 0.467423
v 0.178539 6.527063 0.549489
v 0.000000 6.527063 0.577767
v -0.178540 6.527265 0.549489
v -0.339602 6.527063 0.467423
v -0.467424 6.527063 0.339601
v -0.549490 6.527063 0.178539
v -0.577769 6.527265 -0.000001
v -0.549490 6.527063 -0.178541
v -0.467424 6.527063 -0.339603
v -0.339602 6.527063 -0.467425
v -0.178540 6.527265 -0.549491
v 0.000000 6.527063 -0.577769
v 0.178539 6.527063 -0.549491
v 0.339602 6.527063 -0.467425
v 0.467424 6.527265 -0.339603
vt 0.019531 0.183170
vt 0.019531 0.171481
vt 0.019531 0.159793
vt 0.381401 0.159793
vt 0.019531 0.194858
vt 0.019531 0.148104
vt 0.436610 0.159793
vt 0.436610 0.171481
vt 0.019531 0.136415
vt 0.436610 0.148104
vt 0.019531 0.124727
vt 0.381401 0.031219
vt 0.381401 0.253301
vt 0.436610 0.019531
vt 0.436610 0.031219
vt 0.019531 0.031219
vt 0.019531 0.253301
vt 0.019531 0.241612
vt 0.019531 0.042907
vt 0.019531 0.054597
vt 0.019531 0.066285
vt 0.381401 0.066285
vt 0.019531 0.077973
vt 0.381401 0.077973
vt 0.381401 0.054597
vt 0.436610 0.054597
vt 0.436610 0.066285
vt 0.381401 0.206546
vt 0.436610 0.206546
vt 0.019531 0.206546
vt 0.381401 0.218235
vt 0.436610 0.218235
vt 0.019531 0.218235
vt 0.019531 0.229924
vt 0.375875 0.229924
vt 0.381401 0.241612
vt 0.019531 0.101350
vt 0.019531 0.089661
vt 0.019531 0.113038
vt 0.381401 0.113038
vt 0.436610 0.101350
vt 0.436610 0.113038
vt 0.381401 0.194858
vt 0.436610 0.194858
vt 0.436610 0.206546
vt 0.436610 0.241612
vt 0.436610 0.253301
vt 0.381401 0.019531
vt 0.436610 0.066285
vt 0.436610 0.077973
vt 0.381401 0.101350
vt 0.436610 0.113038
vt 0.381401 0.124727
vt 0.436610 0.124727
vt 0.381401 0.148104
vt 0.381401 0.171481
vt 0.375875 0.136415
vt 0.375875 0.089661
vt 0.375875 0.042907
vt 0.019531 0.019531
vt 0.375875 0.183170
vt 0.436610 0.159793
vt 0.895136 0.148959
vt 0.887294 0.150421
vt 0.887294 0.225581
vt 0.917278 0.219991
vt 0.902193 0.145094
vt 0.944257 0.205214
vt 0.744572 0.239432
vt 0.746032 0.247549
vt 0.818422 0.247549
vt 0.812843 0.216516
vt 0.740748 0.232173
vt 0.798219 0.188762
vt 0.837712 0.196081
vt 0.829722 0.197303
vt 0.829722 0.270361
vt 0.860270 0.265687
vt 0.844900 0.192384
vt 0.887752 0.251555
vt 0.521505 0.228076
vt 0.525330 0.220817
vt 0.467858 0.177406
vt 0.453235 0.205160
vt 0.520046 0.236193
vt 0.447655 0.236193
vt 0.730489 0.218747
vt 0.734354 0.211690
vt 0.674234 0.169626
vt 0.659457 0.196605
vt 0.729027 0.226589
vt 0.653867 0.226589
vt 0.980073 0.182544
vt 0.935445 0.166394
vt 0.973593 0.060979
vt 0.980073 0.063324
vt 0.890127 0.076967
vt 0.906277 0.121595
vt 0.787056 0.121595
vt 0.784712 0.115115
vt 0.784712 0.065098
vt 0.801615 0.019531
vt 0.906614 0.058482
vt 0.904160 0.065098
vt 0.759589 0.177871
vt 0.777314 0.132488
vt 0.876642 0.171282
vt 0.874068 0.177871
vt 0.626537 0.159639
vt 0.644261 0.205021
vt 0.529783 0.205021
vt 0.527209 0.198432
vt 0.678098 0.065098
vt 0.661194 0.019531
vt 0.780643 0.019531
vt 0.783097 0.026147
vt 0.763314 0.051548
vt 0.785013 0.100057
vt 0.673765 0.100057
vt 0.670615 0.093014
vt 0.559966 0.114377
vt 0.581355 0.162193
vt 0.471696 0.162193
vt 0.468591 0.155251
vt 0.641306 0.158734
vt 0.662695 0.110918
vt 0.754070 0.151792
vt 0.750965 0.158734
vt 0.917650 0.019531
vt 0.966159 0.041230
vt 0.924693 0.133929
vt 0.917650 0.130779
vt 0.559193 0.236940
vt 0.591579 0.236940
vt 0.591579 0.248205
vt 0.559193 0.248205
vt 0.533490 0.236940
vt 0.533490 0.248205
vt 0.568922 0.215914
vt 0.601213 0.215914
vt 0.601213 0.226047
vt 0.568921 0.226047
vt 0.536630 0.215914
vt 0.536630 0.226047
vt 0.966599 0.192438
vt 0.966599 0.224825
vt 0.955333 0.224825
vt 0.955333 0.192438
vt 0.966599 0.250528
vt 0.955333 0.250528
vt 0.632446 0.237482
vt 0.665559 0.237482
vt 0.665559 0.247872
vt 0.632446 0.247872
vt 0.602576 0.237482
vt 0.602576 0.247872
vt 0.931921 0.261421
vt 0.961791 0.261421
vt 0.961791 0.271811
vt 0.931921 0.271811
vt 0.898808 0.261421
vt 0.898808 0.271811
vn 0.891005 0.000000 -0.453994
vn 0.891005 0.000000 -0.453994
vn 0.891005 0.000000 -0.453994
vn 0.891005 0.000000 -0.453994
vn 0.707110 0.000000 -0.707104
vn 0.707110 0.000000 -0.707104
vn 0.707110 0.000000 -0.707104
vn 0.707110 0.000000 -0.707104
vn 0.309019 0.000000 -0.951056
vn 0.461146 0.000000 -0.887324
vn 0.453990 0.000000 -0.891007
vn 0.309019 0.000000 -0.951056
vn 0.148484 0.000000 -0.988915
vn 0.156438 0.000000 -0.987688
vn -0.156433 0.000000 -0.987689
vn -0.156433 0.000000 -0.987689
vn -0.156433 0.000000 -0.987689
vn -0.156433 0.000000 -0.987689
vn -0.453998 0.000000 -0.891002
vn -0.453998 0.000000 -0.891002
vn -0.453998 0.000000 -0.891002
vn -0.453998 0.000000 -0.891002
vn -0.809015 0.000000 -0.587788
vn -0.701392 0.000000 -0.712775
vn -0.707106 0.000000 -0.707108
vn -0.809015 0.000000 -0.587788
vn -0.894630 0.000000 -0.446808
vn -0.891005 0.000000 -0.453994
vn -0.987689 0.000000 -0.156432
vn -0.987689 0.000000 -0.156432
vn -0.987689 0.000000 -0.156432
vn -0.987689 0.000000 -0.156432
vn -0.987689 0.000000 0.156432
vn -0.987689 0.000000 0.156432
vn -0.987689 0.000000 0.156432
vn -0.987689 0.000000 0.156432
vn -0.809015 0.000000 0.587788
vn -0.894630 0.000000 0.446808
vn -0.891005 0.000000 0.453994
vn -0.809015 0.000000 0.587788
vn -0.701393 0.000000 0.712775
vn -0.707107 0.000000 0.707107
vn -0.453992 0.000000 0.891006
vn -0.453992 0.000000 0.891006
vn -0.453992 0.000000 0.891006
vn -0.453992 0.000000 0.891006
vn -0.156436 0.000000 0.987688
vn -0.156436 0.000000 0.987688
vn -0.156436 0.000000 0.987688
vn -0.156436 0.000000 0.987688
vn 0.309020 0.000000 0.951056
vn 0.148482 0.000000 0.988915
vn 0.156437 0.000000 0.987688
vn 0.309020 0.000000 0.951056
vn 0.461150 0.000000 0.887322
vn 0.453993 0.000000 0.891005
vn 0.707110 0.000000 0.707104
vn 0.707110 0.000000 0.707104
vn 0.707110 0.000000 0.707104
vn 0.707110 0.000000 0.707104
vn 0.891005 0.000000 0.453994
vn 0.891005 0.000000 0.453994
vn 0.891005 0.000000 0.453994
vn 0.891005 0.000000 0.453994
vn 1.000000 0.000000 0.000002
vn 0.986397 0.000000 0.164380
vn 0.987688 0.000000 0.156436
vn 1.000000 0.000000 0.000002
vn 0.986398 0.000000 -0.164377
vn 0.987689 0.000000 -0.156432
vn 0.950541 0.000000 -0.310599
vn 1.000000 0.000000 0.000002
vn 0.950540 0.000000 0.310601
vn 0.809016 0.000000 0.587787
vn 0.809016 0.000000 0.587787
vn 0.589133 0.000000 0.808036
vn 0.309020 0.000000 0.951056
vn -0.001664 0.000000 0.999999
vn -0.309019 0.000000 0.951056
vn -0.309019 0.000000 0.951056
vn -0.586441 0.000000 0.809992
vn -0.809015 0.000000 0.587788
vn -0.951568 0.000000 0.307437
vn -1.000000 0.000000 0.000000
vn -1.000000 0.000000 0.000000
vn -0.951568 0.000000 -0.307437
vn -0.809015 0.000000 -0.587788
vn -0.586442 0.000000 -0.809991
vn -0.309020 0.000000 -0.951056
vn -0.309020 0.000000 -0.951056
vn -0.001662 0.000000 -0.999999
vn 0.309019 0.000000 -0.951056
vn 0.589131 0.000000 -0.808037
vn 0.809016 0.000000 -0.587787
vn 0.809016 0.000000 -0.587787
vn 0.311992 0.922358 -0.227851
vn 0.398978 0.911831 -0.096852
vn 0.398978 0.911831 -0.096852
vn 0.312584 0.922364 -0.227015
vn 0.301981 0.000000 0.953314
vn 0.301981 0.000000 0.953314
vn 0.301981 0.000000 0.953314
vn 0.301981 0.000000 0.953314
vn 0.218174 0.910198 -0.352051
vn 0.218174 0.910198 -0.352051
vn -0.797394 0.000000 -0.603459
vn -0.797394 0.000000 -0.603459
vn -0.797394 0.000000 -0.603459
vn -0.797394 0.000000 -0.603459
vn -0.123691 0.918526 -0.375514
vn 0.029640 0.908479 -0.416877
vn 0.029640 0.908479 -0.416877
vn -0.122049 0.918541 -0.376013
vn 0.999701 0.000000 0.024465
vn 0.999701 0.000000 0.024465
vn 0.999701 0.000000 0.024465
vn 0.999701 0.000000 0.024465
vn -0.271581 0.905698 -0.325506
vn -0.271581 0.905698 -0.325506
vn -0.820659 0.000000 0.571418
vn -0.820659 0.000000 0.571418
vn -0.820659 0.000000 0.571417
vn -0.820659 0.000000 0.571418
vn -0.401085 0.916041 -0.000000
vn -0.396049 0.904538 -0.157977
vn -0.396049 0.904538 -0.157977
vn -0.401085 0.916041 -0.000000
vn 0.316371 0.000000 -0.948635
vn 0.316371 0.000000 -0.948636
vn 0.316371 0.000000 -0.948636
vn 0.316371 0.000000 -0.948636
vn -0.396049 0.904538 0.157977
vn -0.396049 0.904538 0.157977
vn 0.316371 0.000000 0.948635
vn 0.316371 0.000000 0.948635
vn 0.316371 0.000000 0.948635
vn 0.316371 0.000000 0.948635
vn -0.123691 0.918526 0.375515
vn -0.271579 0.905699 0.325507
vn -0.271579 0.905699 0.325507
vn -0.122048 0.918541 0.376013
vn -0.820660 0.000000 -0.571417
vn -0.820660 0.000000 -0.571417
vn -0.820660 0.000000 -0.571417
vn -0.820660 0.000000 -0.571417
vn 0.029639 0.908479 0.416877
vn 0.029639 0.908479 0.416877
vn 0.999701 0.000000 -0.024465
vn 0.999701 0.000000 -0.024465
vn 0.999701 0.000000 -0.024465
vn 0.999701 0.000000 -0.024465
vn 0.311992 0.922359 0.227850
vn 0.218174 0.910199 0.352049
vn 0.218174 0.910199 0.352049
vn 0.312584 0.922364 0.227015
vn -0.797394 0.000000 0.603459
vn -0.797394 0.000000 0.603459
vn -0.797394 0.000000 0.603459
vn -0.797394 0.000000 0.603459
vn 0.398978 0.911831 0.096852
vn 0.398978 0.911831 0.096852
vn 0.301981 0.000000 -0.953314
vn 0.301981 0.000000 -0.953314
vn 0.301981 0.000000 -0.953314
vn 0.301981 0.000000 -0.953314
s off
g Table Bottom
f 97/238/142 98/239/143 99/240/144 100/241/145
f 101/242/146 97/238/147 100/241/148 102/243/149
s 1
f 94/133/150 95/148/151 63/149/152 64/150/153
f 93/136/154 94/133/150 64/134/153 65/137/155
s off
f 103/256/156 104/257/157 105/258/158 106/259/159
f 107/260/160 103/256/161 106/259/162 108/261/163
s 1
f 90/118/164 91/141/165 66/151/166 67/152/167
f 89/117/168 90/153/164 67/119/167 68/120/169
s off
f 109/244/170 110/245/171 111/246/172 112/247/173
f 113/248/174 109/244/175 112/247/176 114/249/177
s 1
f 86/127/178 87/130/179 69/131/180 70/154/181
f 85/129/182 86/127/178 70/132/181 71/155/183
s off
f 115/262/184 116/263/185 117/264/186 118/265/187
f 119/266/188 115/262/189 118/265/190 120/267/191
s 1
f 82/145/192 83/156/193 72/146/194 73/157/195
f 81/158/196 82/145/192 73/147/195 74/159/197
s off
f 121/251/198 122/254/199 123/255/200 124/252/201
f 125/250/202 121/251/203 124/252/204 126/253/205
s 1
f 78/109/206 79/160/207 75/115/208 76/167/209
f 77/161/210 78/109/206 76/112/209 62/113/211
f 127/107/212 128/108/213 78/109/206 77/161/210
f 128/108/213 129/111/214 79/160/207 78/109/206
f 129/111/214 130/114/215 80/162/216 79/160/207
f 130/114/215 131/116/217 81/158/196 80/162/216
f 131/116/217 132/144/218 82/145/192 81/158/196
f 132/144/218 133/142/219 83/156/193 82/145/192
f 133/142/219 134/143/220 84/163/221 83/156/193
f 134/143/220 135/128/222 85/129/182 84/163/221
f 135/128/222 136/126/223 86/127/178 85/129/182
f 136/126/223 137/125/224 87/130/179 86/127/178
f 137/125/224 138/124/225 88/164/226 87/130/179
f 138/124/225 139/121/227 89/117/168 88/164/226
f 139/121/227 140/165/228 90/153/164 89/117/168
f 140/122/228 141/123/229 91/141/165 90/118/164
f 141/123/229 142/139/230 92/140/231 91/141/165
f 142/139/230 143/138/232 93/136/154 92/140/231
f 143/138/232 144/135/233 94/133/150 93/136/154
f 144/135/233 145/110/234 95/148/151 94/133/150
f 145/110/234 146/106/235 96/166/236 95/148/151
f 146/106/235 127/107/212 77/161/210 96/166/236
s 6
f 96/168/237 77/169/238 98/170/239 97/171/240
s off
f 77/206/241 62/207/242 99/208/243 98/209/244
s 6
f 95/172/245 96/168/237 97/171/240 101/173/246
s off
f 63/222/247 95/223/248 101/224/249 102/225/250
s 7
f 92/174/251 93/175/252 104/176/253 103/177/254
s off
f 93/198/255 65/199/256 105/200/257 104/201/258
s 7
f 91/178/259 92/174/251 103/177/254 107/179/260
s off
f 66/226/261 91/227/262 107/228/263 108/229/264
s 8
f 88/180/265 89/181/266 110/182/267 109/183/268
s off
f 89/210/269 68/211/270 111/212/271 110/213/272
s 8
f 87/184/273 88/180/265 109/183/268 113/185/274
s off
f 69/214/275 87/215/276 113/216/277 114/217/278
s 9
f 84/186/279 85/187/280 116/188/281 115/189/282
s off
f 85/230/283 71/231/284 117/232/285 116/233/286
s 9
f 83/190/287 84/186/279 115/189/282 119/191/288
s off
f 72/202/289 83/203/290 119/204/291 120/205/292
s 10
f 80/192/293 81/193/294 122/194/295 121/195/296
s off
f 81/234/297 74/235/298 123/236/299 122/237/300
s 10
f 79/196/301 80/192/293 121/195/296 125/197/302
s off
f 75/218/303 79/219/304 125/220/305 126/221/306
